<svg xmlns="http://www.w3.org/2000/svg" width="30.857" height="36" viewBox="0 0 30.857 36">
  <path id="user-o" d="M24.127,15.75a8.691,8.691,0,0,1,1.8.763,7.9,7.9,0,0,1,1.788,1.467,9.454,9.454,0,0,1,1.6,2.32,14.561,14.561,0,0,1,1.1,3.455,23.359,23.359,0,0,1,.442,4.751A7.576,7.576,0,0,1,28.848,33.8,6.325,6.325,0,0,1,24.007,36H6.85a6.326,6.326,0,0,1-4.842-2.2A7.57,7.57,0,0,1,0,28.507a23.35,23.35,0,0,1,.442-4.751A14.581,14.581,0,0,1,1.547,20.3a9.447,9.447,0,0,1,1.6-2.321,7.9,7.9,0,0,1,1.788-1.467,8.691,8.691,0,0,1,1.8-.763A10.19,10.19,0,0,1,5.957,6.3,10.175,10.175,0,0,1,11.441.814a10.176,10.176,0,0,1,7.976,0A10.183,10.183,0,0,1,24.9,6.3a10.195,10.195,0,0,1-.774,9.452Zm-8.7-13.179a7.432,7.432,0,0,0-5.454,2.26,7.437,7.437,0,0,0-2.261,5.455,7.425,7.425,0,0,0,2.26,5.454A7.441,7.441,0,0,0,15.429,18a7.427,7.427,0,0,0,5.454-2.26,7.434,7.434,0,0,0,2.26-5.454,7.434,7.434,0,0,0-2.26-5.454A7.43,7.43,0,0,0,15.429,2.571Zm8.578,30.857a3.879,3.879,0,0,0,3.023-1.436,5.116,5.116,0,0,0,1.256-3.485,15.363,15.363,0,0,0-1.577-7.574,5.269,5.269,0,0,0-4.53-2.913,9.936,9.936,0,0,1-6.75,2.551,9.936,9.936,0,0,1-6.75-2.551,5.271,5.271,0,0,0-4.53,2.913,15.366,15.366,0,0,0-1.578,7.574,5.11,5.11,0,0,0,1.256,3.485A3.884,3.884,0,0,0,6.85,33.429H24.006Z" fill="#fff"/>
</svg>
