<svg id="cart3" xmlns="http://www.w3.org/2000/svg" width="33.75" height="33.75" viewBox="0 0 33.75 33.75">
  <path id="Path_112" data-name="Path 112" d="M0,3.375A1.125,1.125,0,0,1,1.125,2.25H4.5A1.125,1.125,0,0,1,5.591,3.1L6.5,6.75H32.625a1.125,1.125,0,0,1,1.1,1.345l-2.25,11.25a1.125,1.125,0,0,1-1.046.9L9.289,21.309l.645,3.441H29.25a1.125,1.125,0,0,1,0,2.25H9a1.125,1.125,0,0,1-1.1-.918L4.522,8.116,3.623,4.5h-2.5A1.125,1.125,0,0,1,0,3.375ZM6.979,9l1.89,10.078,20.574-1.033L31.253,9ZM11.25,27a4.5,4.5,0,1,0,4.5,4.5A4.5,4.5,0,0,0,11.25,27ZM27,27a4.5,4.5,0,1,0,4.5,4.5A4.5,4.5,0,0,0,27,27ZM11.25,29.25A2.25,2.25,0,1,0,13.5,31.5,2.25,2.25,0,0,0,11.25,29.25Zm15.75,0a2.25,2.25,0,1,0,2.25,2.25A2.25,2.25,0,0,0,27,29.25Z" transform="translate(0 -2.25)" fill="#fff" fill-rule="evenodd"/>
</svg>
