<svg xmlns="http://www.w3.org/2000/svg" width="26.52" height="28.558" viewBox="0 0 26.52 28.558">
  <path id="bell-o" d="M13.515,27.029a.225.225,0,0,0-.255-.255,2.315,2.315,0,0,1-2.3-2.3.255.255,0,0,0-.509,0,2.8,2.8,0,0,0,2.8,2.805.225.225,0,0,0,.255-.255ZM2.9,22.439H23.619Q19.38,17.657,19.38,9.179A4.1,4.1,0,0,0,19,7.506a6.1,6.1,0,0,0-1.1-1.641,5.329,5.329,0,0,0-1.936-1.283,7.051,7.051,0,0,0-2.7-.5,7.006,7.006,0,0,0-2.7.5A5.365,5.365,0,0,0,8.622,5.865a6.041,6.041,0,0,0-1.1,1.641A4.129,4.129,0,0,0,7.14,9.179q0,8.479-4.239,13.259Zm23.618,0a2.067,2.067,0,0,1-2.04,2.04H17.34a4.082,4.082,0,0,1-4.08,4.08,4.082,4.082,0,0,1-4.08-4.08H2.04a1.96,1.96,0,0,1-1.434-.605A1.96,1.96,0,0,1,0,22.439a14.061,14.061,0,0,0,1.45-1.4,12.618,12.618,0,0,0,1.355-1.9,14.342,14.342,0,0,0,1.188-2.526,18.54,18.54,0,0,0,.8-3.283A26.178,26.178,0,0,0,5.1,9.179a6.626,6.626,0,0,1,1.864-4.5,7.881,7.881,0,0,1,4.892-2.526,1.585,1.585,0,0,1-.128-.621A1.474,1.474,0,0,1,12.176.447a1.538,1.538,0,0,1,2.167,0A1.477,1.477,0,0,1,14.79,1.53a1.581,1.581,0,0,1-.128.621,7.881,7.881,0,0,1,4.892,2.526,6.629,6.629,0,0,1,1.865,4.5,26.053,26.053,0,0,0,.311,4.143,18.633,18.633,0,0,0,.8,3.283,14.268,14.268,0,0,0,1.188,2.526,12.693,12.693,0,0,0,1.355,1.9,13.954,13.954,0,0,0,1.45,1.4Z" transform="translate(0 0)" fill="#9a9e9f"/>
</svg>
